STARTFONT 2.1
COMMENT
COMMENT Converted from OpenType font "KarenFat.ttf" by "otf2bdf 3.0".
COMMENT
FONT -FreeType-KarenFat-Medium-R-Normal--32-320-72-72-P-144-ISO10646-1
SIZE 32 72 72
FONTBOUNDINGBOX 24 32 0 -8
STARTPROPERTIES 19
FOUNDRY "FreeType"
FAMILY_NAME "KarenFat"
WEIGHT_NAME "Medium"
SLANT "R"
SETWIDTH_NAME "Normal"
ADD_STYLE_NAME ""
PIXEL_SIZE 32
POINT_SIZE 320
RESOLUTION_X 72
RESOLUTION_Y 72
SPACING "P"
AVERAGE_WIDTH 144
CHARSET_REGISTRY "ISO10646"
CHARSET_ENCODING "1"
FONT_ASCENT 24
FONT_DESCENT 8
COPYRIGHT "PaulSpades"
_OTF_FONTFILE "KarenFat.ttf"
_OTF_PSNAME "KarenFat"
ENDPROPERTIES
CHARS 95
STARTCHAR 0020
ENCODING 32
SWIDTH 312 0
DWIDTH 10 0
BBX 0 0 0 0
BITMAP
ENDCHAR
STARTCHAR 0021
ENCODING 33
SWIDTH 312 0
DWIDTH 10 0
BBX 6 24 2 -2
BITMAP
FC
FC
FC
FC
FC
FC
FC
FC
FC
FC
FC
FC
FC
FC
00
00
00
00
FC
FC
FC
FC
FC
FC
ENDCHAR
STARTCHAR 0022
ENCODING 34
SWIDTH 500 0
DWIDTH 16 0
BBX 12 8 2 12
BITMAP
FFF0
FFF0
FFF0
FFF0
FFF0
FFF0
F3C0
F3C0
ENDCHAR
STARTCHAR 0023
ENCODING 35
SWIDTH 625 0
DWIDTH 20 0
BBX 18 18 0 0
BITMAP
3F3F00
3F3F00
3F3F00
3F3F00
FFFF00
FFFF00
FFFF00
FFFF00
3F3F00
3F3F00
FFFFC0
FFFFC0
FFFFC0
FFFFC0
3F3F00
3F3F00
3F3F00
3F3F00
ENDCHAR
STARTCHAR 0024
ENCODING 36
SWIDTH 500 0
DWIDTH 16 0
BBX 14 20 0 0
BITMAP
03C0
03C0
3FFC
3FFC
FFFC
FFFC
F3C0
F3C0
FFF0
FFF0
3FFC
3FFC
03FC
03FC
FFFC
FFFC
FFF0
FFF0
03C0
03C0
ENDCHAR
STARTCHAR 0025
ENCODING 37
SWIDTH 687 0
DWIDTH 22 0
BBX 20 26 0 -4
BITMAP
0FC000
0FC000
3FF000
3FF000
3CF3F0
3CF3F0
3FFFF0
3FFFF0
0FFFC0
0FFFC0
00FF00
00FF00
03FC00
03FC00
0FF000
0FF000
3FFF00
3FFF00
FFFFC0
FFFFC0
FCF3C0
FCF3C0
00FFC0
00FFC0
003F00
003F00
ENDCHAR
STARTCHAR 0026
ENCODING 38
SWIDTH 687 0
DWIDTH 22 0
BBX 20 18 0 0
BITMAP
0FF000
0FF000
3FF000
3FF000
3CF000
3CF000
0FFFC0
0FFFC0
3FFFC0
3FFFC0
FCF000
FCF000
FCF3F0
FCF3F0
FFFFF0
FFFFF0
3F3FC0
3F3FC0
ENDCHAR
STARTCHAR 0027
ENCODING 39
SWIDTH 312 0
DWIDTH 10 0
BBX 6 8 2 12
BITMAP
FC
FC
FC
FC
FC
FC
3C
3C
ENDCHAR
STARTCHAR 0028
ENCODING 40
SWIDTH 375 0
DWIDTH 12 0
BBX 8 24 2 -4
BITMAP
0F
0F
3F
3F
3C
3C
FC
FC
F0
F0
F0
F0
F0
F0
F0
F0
FC
FC
3C
3C
3F
3F
0F
0F
ENDCHAR
STARTCHAR 0029
ENCODING 41
SWIDTH 375 0
DWIDTH 12 0
BBX 8 24 2 -4
BITMAP
F0
F0
FC
FC
3C
3C
3F
3F
0F
0F
0F
0F
0F
0F
0F
0F
3F
3F
3C
3C
FC
FC
F0
F0
ENDCHAR
STARTCHAR 002A
ENCODING 42
SWIDTH 562 0
DWIDTH 18 0
BBX 14 14 2 6
BITMAP
FCFC
FCFC
FFFC
FFFC
FFFC
FFFC
0FC0
0FC0
FFFC
FFFC
FFFC
FFFC
FCFC
FCFC
ENDCHAR
STARTCHAR 002B
ENCODING 43
SWIDTH 562 0
DWIDTH 18 0
BBX 14 12 2 4
BITMAP
0FC0
0FC0
0FC0
0FC0
FFFC
FFFC
FFFC
FFFC
0FC0
0FC0
0FC0
0FC0
ENDCHAR
STARTCHAR 002C
ENCODING 44
SWIDTH 375 0
DWIDTH 12 0
BBX 8 10 2 -6
BITMAP
3F
3F
3F
3F
3F
3F
FF
FF
FC
FC
ENDCHAR
STARTCHAR 002D
ENCODING 45
SWIDTH 375 0
DWIDTH 12 0
BBX 8 4 2 6
BITMAP
FF
FF
FF
FF
ENDCHAR
STARTCHAR 002E
ENCODING 46
SWIDTH 312 0
DWIDTH 10 0
BBX 6 6 2 0
BITMAP
FC
FC
FC
FC
FC
FC
ENDCHAR
STARTCHAR 002F
ENCODING 47
SWIDTH 437 0
DWIDTH 14 0
BBX 10 22 2 -2
BITMAP
03C0
03C0
03C0
03C0
0FC0
0FC0
0F00
0F00
0F00
0F00
3F00
3F00
3C00
3C00
3C00
3C00
FC00
FC00
F000
F000
F000
F000
ENDCHAR
STARTCHAR 0030
ENCODING 48
SWIDTH 500 0
DWIDTH 16 0
BBX 14 20 0 0
BITMAP
3FF0
3FF0
FFFC
FFFC
FCFC
FCFC
FCFC
FCFC
FCFC
FCFC
FCFC
FCFC
FCFC
FCFC
FCFC
FCFC
FFFC
FFFC
3FF0
3FF0
ENDCHAR
STARTCHAR 0031
ENCODING 49
SWIDTH 437 0
DWIDTH 14 0
BBX 10 20 2 0
BITMAP
0F00
0F00
FF00
FF00
FF00
FF00
3F00
3F00
3F00
3F00
3F00
3F00
3F00
3F00
3F00
3F00
FFC0
FFC0
FFC0
FFC0
ENDCHAR
STARTCHAR 0032
ENCODING 50
SWIDTH 500 0
DWIDTH 16 0
BBX 14 20 0 0
BITMAP
3FF0
3FF0
FFFC
FFFC
FCFC
FCFC
00FC
00FC
3FFC
3FFC
FFF0
FFF0
FC00
FC00
FCFC
FCFC
FFFC
FFFC
FFFC
FFFC
ENDCHAR
STARTCHAR 0033
ENCODING 51
SWIDTH 562 0
DWIDTH 18 0
BBX 16 20 0 0
BITMAP
FFFC
FFFC
FFFC
FFFC
FCFC
FCFC
03F0
03F0
0FC0
0FC0
3FFC
3FFC
00FF
00FF
FCFF
FCFF
FFFF
FFFF
FFFC
FFFC
ENDCHAR
STARTCHAR 0034
ENCODING 52
SWIDTH 562 0
DWIDTH 18 0
BBX 16 20 0 0
BITMAP
00FC
00FC
03FC
03FC
0FFC
0FFC
3FFC
3FFC
FCFC
FCFC
FCFC
FCFC
FFFF
FFFF
FFFF
FFFF
00FC
00FC
00FC
00FC
ENDCHAR
STARTCHAR 0035
ENCODING 53
SWIDTH 500 0
DWIDTH 16 0
BBX 14 20 0 0
BITMAP
FFFC
FFFC
FFFC
FFFC
FC00
FC00
FC00
FC00
FFF0
FFF0
FFFC
FFFC
00FC
00FC
FCFC
FCFC
FFFC
FFFC
3FF0
3FF0
ENDCHAR
STARTCHAR 0036
ENCODING 54
SWIDTH 500 0
DWIDTH 16 0
BBX 14 20 0 0
BITMAP
3FF0
3FF0
FFFC
FFFC
FCFC
FCFC
FC00
FC00
FFF0
FFF0
FFFC
FFFC
FCFC
FCFC
FCFC
FCFC
FFFC
FFFC
3FF0
3FF0
ENDCHAR
STARTCHAR 0037
ENCODING 55
SWIDTH 500 0
DWIDTH 16 0
BBX 14 20 0 0
BITMAP
FFFC
FFFC
FFFC
FFFC
FCFC
FCFC
00FC
00FC
03FC
03FC
03F0
03F0
0FF0
0FF0
0FC0
0FC0
0FC0
0FC0
0FC0
0FC0
ENDCHAR
STARTCHAR 0038
ENCODING 56
SWIDTH 500 0
DWIDTH 16 0
BBX 14 20 0 0
BITMAP
3FF0
3FF0
FFFC
FFFC
FCFC
FCFC
FCFC
FCFC
3FF0
3FF0
FFFC
FFFC
FCFC
FCFC
FCFC
FCFC
FFFC
FFFC
3FF0
3FF0
ENDCHAR
STARTCHAR 0039
ENCODING 57
SWIDTH 500 0
DWIDTH 16 0
BBX 14 20 0 0
BITMAP
3FF0
3FF0
FFFC
FFFC
FCFC
FCFC
FCFC
FCFC
FFFC
FFFC
3FFC
3FFC
00FC
00FC
FCFC
FCFC
FFFC
FFFC
3FF0
3FF0
ENDCHAR
STARTCHAR 003A
ENCODING 58
SWIDTH 312 0
DWIDTH 10 0
BBX 6 14 2 0
BITMAP
FC
FC
FC
FC
00
00
00
00
00
00
FC
FC
FC
FC
ENDCHAR
STARTCHAR 003B
ENCODING 59
SWIDTH 375 0
DWIDTH 12 0
BBX 8 18 2 -4
BITMAP
3F
3F
3F
3F
00
00
00
00
00
00
3F
3F
3F
3F
FF
FF
FC
FC
ENDCHAR
STARTCHAR 003C
ENCODING 60
SWIDTH 437 0
DWIDTH 14 0
BBX 10 12 2 2
BITMAP
0FC0
0FC0
3FC0
3FC0
FC00
FC00
FC00
FC00
3FC0
3FC0
0FC0
0FC0
ENDCHAR
STARTCHAR 003D
ENCODING 61
SWIDTH 437 0
DWIDTH 14 0
BBX 10 10 2 2
BITMAP
FFC0
FFC0
FFC0
FFC0
0000
0000
FFC0
FFC0
FFC0
FFC0
ENDCHAR
STARTCHAR 003E
ENCODING 62
SWIDTH 437 0
DWIDTH 14 0
BBX 10 12 2 2
BITMAP
FC00
FC00
FF00
FF00
0FC0
0FC0
0FC0
0FC0
FF00
FF00
FC00
FC00
ENDCHAR
STARTCHAR 003F
ENCODING 63
SWIDTH 562 0
DWIDTH 18 0
BBX 16 22 0 -2
BITMAP
3FFC
3FFC
FFFF
FFFF
FC3F
FC3F
00FC
00FC
03F0
03F0
0FC0
0FC0
0FC0
0FC0
0000
0000
0000
0000
0FC0
0FC0
0FC0
0FC0
ENDCHAR
STARTCHAR 0040
ENCODING 64
SWIDTH 687 0
DWIDTH 22 0
BBX 20 22 0 -6
BITMAP
0FFF00
0FFF00
3FFFC0
3FFFC0
F003F0
F003F0
C3FCF0
C3FCF0
CF3CF0
CF3CF0
CF3CF0
CF3CF0
CF3CF0
CF3CF0
C3FFF0
C3FFF0
F00000
F00000
3FFFC0
3FFFC0
0FFFC0
0FFFC0
ENDCHAR
STARTCHAR 0041
ENCODING 65
SWIDTH 562 0
DWIDTH 18 0
BBX 16 18 0 0
BITMAP
3FFC
3FFC
FFFF
FFFF
FC3F
FC3F
FC3F
FC3F
FC3F
FC3F
FFFF
FFFF
FFFF
FFFF
FC3F
FC3F
FC3F
FC3F
ENDCHAR
STARTCHAR 0042
ENCODING 66
SWIDTH 562 0
DWIDTH 18 0
BBX 16 18 0 0
BITMAP
FFFC
FFFC
FFFF
FFFF
FC3F
FC3F
FC3F
FC3F
FFFC
FFFC
FFFF
FFFF
FC3F
FC3F
FFFF
FFFF
FFFC
FFFC
ENDCHAR
STARTCHAR 0043
ENCODING 67
SWIDTH 562 0
DWIDTH 18 0
BBX 16 18 0 0
BITMAP
3FFC
3FFC
FFFF
FFFF
FC3F
FC3F
FC3F
FC3F
FC00
FC00
FC00
FC00
FC3F
FC3F
FFFF
FFFF
3FFC
3FFC
ENDCHAR
STARTCHAR 0044
ENCODING 68
SWIDTH 562 0
DWIDTH 18 0
BBX 16 18 0 0
BITMAP
FFFC
FFFC
FFFF
FFFF
FC3F
FC3F
FC3F
FC3F
FC3F
FC3F
FC3F
FC3F
FC3F
FC3F
FFFF
FFFF
FFFC
FFFC
ENDCHAR
STARTCHAR 0045
ENCODING 69
SWIDTH 562 0
DWIDTH 18 0
BBX 16 18 0 0
BITMAP
FFFF
FFFF
FFFF
FFFF
FC3F
FC3F
FC00
FC00
FFC0
FFC0
FFC0
FFC0
FC3F
FC3F
FFFF
FFFF
FFFF
FFFF
ENDCHAR
STARTCHAR 0046
ENCODING 70
SWIDTH 562 0
DWIDTH 18 0
BBX 16 18 0 0
BITMAP
FFFF
FFFF
FFFF
FFFF
FC3F
FC3F
FC00
FC00
FFF0
FFF0
FFF0
FFF0
FC00
FC00
FC00
FC00
FC00
FC00
ENDCHAR
STARTCHAR 0047
ENCODING 71
SWIDTH 562 0
DWIDTH 18 0
BBX 16 18 0 0
BITMAP
3FFC
3FFC
FFFF
FFFF
FC3F
FC3F
FC00
FC00
FCFF
FCFF
FCFF
FCFF
FC3F
FC3F
FFFF
FFFF
3FFC
3FFC
ENDCHAR
STARTCHAR 0048
ENCODING 72
SWIDTH 562 0
DWIDTH 18 0
BBX 16 18 0 0
BITMAP
FC3F
FC3F
FC3F
FC3F
FC3F
FC3F
FC3F
FC3F
FFFF
FFFF
FFFF
FFFF
FC3F
FC3F
FC3F
FC3F
FC3F
FC3F
ENDCHAR
STARTCHAR 0049
ENCODING 73
SWIDTH 375 0
DWIDTH 12 0
BBX 10 18 0 0
BITMAP
FFC0
FFC0
FFC0
FFC0
3F00
3F00
3F00
3F00
3F00
3F00
3F00
3F00
3F00
3F00
FFC0
FFC0
FFC0
FFC0
ENDCHAR
STARTCHAR 004A
ENCODING 74
SWIDTH 562 0
DWIDTH 18 0
BBX 16 18 0 0
BITMAP
0FFF
0FFF
0FFF
0FFF
003F
003F
003F
003F
003F
003F
FC3F
FC3F
FC3F
FC3F
FFFF
FFFF
3FFC
3FFC
ENDCHAR
STARTCHAR 004B
ENCODING 75
SWIDTH 562 0
DWIDTH 18 0
BBX 16 18 0 0
BITMAP
FC3F
FC3F
FC3F
FC3F
FC3F
FC3F
FCFC
FCFC
FFF0
FFF0
FFFC
FFFC
FCFF
FCFF
FC3F
FC3F
FC3F
FC3F
ENDCHAR
STARTCHAR 004C
ENCODING 76
SWIDTH 562 0
DWIDTH 18 0
BBX 16 18 0 0
BITMAP
FC00
FC00
FC00
FC00
FC00
FC00
FC00
FC00
FC00
FC00
FC00
FC00
FC3F
FC3F
FFFF
FFFF
FFFF
FFFF
ENDCHAR
STARTCHAR 004D
ENCODING 77
SWIDTH 687 0
DWIDTH 22 0
BBX 20 18 0 0
BITMAP
FC03F0
FC03F0
FC03F0
FC03F0
FF0FF0
FF0FF0
FFFFF0
FFFFF0
FFFFF0
FFFFF0
FCF3F0
FCF3F0
FC03F0
FC03F0
FC03F0
FC03F0
FC03F0
FC03F0
ENDCHAR
STARTCHAR 004E
ENCODING 78
SWIDTH 562 0
DWIDTH 18 0
BBX 16 18 0 0
BITMAP
FC3F
FC3F
FC3F
FC3F
FF3F
FF3F
FF3F
FF3F
FFFF
FFFF
FFFF
FFFF
FCFF
FCFF
FCFF
FCFF
FC3F
FC3F
ENDCHAR
STARTCHAR 004F
ENCODING 79
SWIDTH 562 0
DWIDTH 18 0
BBX 16 18 0 0
BITMAP
3FFC
3FFC
FFFF
FFFF
FC3F
FC3F
FC3F
FC3F
FC3F
FC3F
FC3F
FC3F
FC3F
FC3F
FFFF
FFFF
3FFC
3FFC
ENDCHAR
STARTCHAR 0050
ENCODING 80
SWIDTH 562 0
DWIDTH 18 0
BBX 16 18 0 0
BITMAP
FFFC
FFFC
FFFF
FFFF
FC3F
FC3F
FC3F
FC3F
FC3F
FC3F
FFFF
FFFF
FFFC
FFFC
FC00
FC00
FC00
FC00
ENDCHAR
STARTCHAR 0051
ENCODING 81
SWIDTH 562 0
DWIDTH 18 0
BBX 16 24 0 -6
BITMAP
3FFC
3FFC
FFFF
FFFF
FC3F
FC3F
FC3F
FC3F
FC3F
FC3F
FC3F
FC3F
FC3F
FC3F
FFFF
FFFF
3FFC
3FFC
03C0
03C0
00FF
00FF
003F
003F
ENDCHAR
STARTCHAR 0052
ENCODING 82
SWIDTH 562 0
DWIDTH 18 0
BBX 16 18 0 0
BITMAP
FFFC
FFFC
FFFF
FFFF
FC3F
FC3F
FCFC
FCFC
FFF0
FFF0
FFFC
FFFC
FC3F
FC3F
FC3F
FC3F
FC3F
FC3F
ENDCHAR
STARTCHAR 0053
ENCODING 83
SWIDTH 562 0
DWIDTH 18 0
BBX 16 18 0 0
BITMAP
3FFF
3FFF
FFFF
FFFF
FC3F
FC3F
FFC0
FFC0
3FFC
3FFC
03FF
03FF
FC3F
FC3F
FFFF
FFFF
FFFC
FFFC
ENDCHAR
STARTCHAR 0054
ENCODING 84
SWIDTH 625 0
DWIDTH 20 0
BBX 18 18 0 0
BITMAP
FFFFC0
FFFFC0
FFFFC0
FFFFC0
F3F3C0
F3F3C0
03F000
03F000
03F000
03F000
03F000
03F000
03F000
03F000
03F000
03F000
03F000
03F000
ENDCHAR
STARTCHAR 0055
ENCODING 85
SWIDTH 562 0
DWIDTH 18 0
BBX 16 18 0 0
BITMAP
FC3F
FC3F
FC3F
FC3F
FC3F
FC3F
FC3F
FC3F
FC3F
FC3F
FC3F
FC3F
FC3F
FC3F
FFFF
FFFF
3FFC
3FFC
ENDCHAR
STARTCHAR 0056
ENCODING 86
SWIDTH 625 0
DWIDTH 20 0
BBX 18 18 0 0
BITMAP
FC0FC0
FC0FC0
FC0FC0
FC0FC0
FC0FC0
FC0FC0
3F3F00
3F3F00
3F3F00
3F3F00
0FFC00
0FFC00
0FFC00
0FFC00
03F000
03F000
03F000
03F000
ENDCHAR
STARTCHAR 0057
ENCODING 87
SWIDTH 687 0
DWIDTH 22 0
BBX 20 18 0 0
BITMAP
FC03F0
FC03F0
FC03F0
FC03F0
FC03F0
FC03F0
FCF3F0
FCF3F0
FCF3F0
FCF3F0
FFFFF0
FFFFF0
FFFFF0
FFFFF0
3F0FC0
3F0FC0
0F0F00
0F0F00
ENDCHAR
STARTCHAR 0058
ENCODING 88
SWIDTH 625 0
DWIDTH 20 0
BBX 18 18 0 0
BITMAP
FC0FC0
FC0FC0
FC0FC0
FC0FC0
3FFF00
3FFF00
0FFC00
0FFC00
03F000
03F000
0FFC00
0FFC00
3FFF00
3FFF00
FC0FC0
FC0FC0
FC0FC0
FC0FC0
ENDCHAR
STARTCHAR 0059
ENCODING 89
SWIDTH 625 0
DWIDTH 20 0
BBX 18 18 0 0
BITMAP
FC0FC0
FC0FC0
FC0FC0
FC0FC0
3FFF00
3FFF00
0FFC00
0FFC00
03F000
03F000
03F000
03F000
03F000
03F000
03F000
03F000
03F000
03F000
ENDCHAR
STARTCHAR 005A
ENCODING 90
SWIDTH 625 0
DWIDTH 20 0
BBX 18 18 0 0
BITMAP
FFFFC0
FFFFC0
FFFFC0
FFFFC0
FC3F00
FC3F00
00FC00
00FC00
03F000
03F000
0FC000
0FC000
3F0FC0
3F0FC0
FFFFC0
FFFFC0
FFFFC0
FFFFC0
ENDCHAR
STARTCHAR 005B
ENCODING 91
SWIDTH 312 0
DWIDTH 10 0
BBX 6 28 2 -6
BITMAP
FC
FC
FC
FC
F0
F0
F0
F0
F0
F0
F0
F0
F0
F0
F0
F0
F0
F0
F0
F0
F0
F0
F0
F0
FC
FC
FC
FC
ENDCHAR
STARTCHAR 005C
ENCODING 92
SWIDTH 437 0
DWIDTH 14 0
BBX 10 22 2 -2
BITMAP
F000
F000
F000
F000
FC00
FC00
3C00
3C00
3C00
3C00
3F00
3F00
0F00
0F00
0F00
0F00
0FC0
0FC0
03C0
03C0
03C0
03C0
ENDCHAR
STARTCHAR 005D
ENCODING 93
SWIDTH 312 0
DWIDTH 10 0
BBX 6 28 2 -6
BITMAP
FC
FC
FC
FC
3C
3C
3C
3C
3C
3C
3C
3C
3C
3C
3C
3C
3C
3C
3C
3C
3C
3C
3C
3C
FC
FC
FC
FC
ENDCHAR
STARTCHAR 005E
ENCODING 94
SWIDTH 562 0
DWIDTH 18 0
BBX 14 10 2 10
BITMAP
0FC0
0FC0
3FF0
3FF0
FFFC
FFFC
FCFC
FCFC
FCFC
FCFC
ENDCHAR
STARTCHAR 005F
ENCODING 95
SWIDTH 687 0
DWIDTH 22 0
BBX 20 4 0 -8
BITMAP
FFFFF0
FFFFF0
FFFFF0
FFFFF0
ENDCHAR
STARTCHAR 0060
ENCODING 96
SWIDTH 375 0
DWIDTH 12 0
BBX 8 6 2 16
BITMAP
FC
FC
FF
FF
3F
3F
ENDCHAR
STARTCHAR 0061
ENCODING 97
SWIDTH 562 0
DWIDTH 18 0
BBX 16 16 0 0
BITMAP
3FFC
3FFC
3FFF
3FFF
003F
003F
FFFF
FFFF
FFFF
FFFF
FC3F
FC3F
FFFF
FFFF
3FFF
3FFF
ENDCHAR
STARTCHAR 0062
ENCODING 98
SWIDTH 562 0
DWIDTH 18 0
BBX 16 22 0 0
BITMAP
FC00
FC00
FC00
FC00
FC00
FC00
FCFC
FCFC
FFFF
FFFF
FFFF
FFFF
FC3F
FC3F
FC3F
FC3F
FC3F
FC3F
FFFF
FFFF
FFFC
FFFC
ENDCHAR
STARTCHAR 0063
ENCODING 99
SWIDTH 562 0
DWIDTH 18 0
BBX 16 16 0 0
BITMAP
3FFF
3FFF
FFFF
FFFF
FC3F
FC3F
FC3F
FC3F
FC00
FC00
FC00
FC00
FFFF
FFFF
3FFF
3FFF
ENDCHAR
STARTCHAR 0064
ENCODING 100
SWIDTH 562 0
DWIDTH 18 0
BBX 16 20 0 0
BITMAP
003F
003F
003F
003F
3F3F
3F3F
FFFF
FFFF
FCFF
FCFF
FC3F
FC3F
FC3F
FC3F
FC3F
FC3F
FFFF
FFFF
3FFF
3FFF
ENDCHAR
STARTCHAR 0065
ENCODING 101
SWIDTH 562 0
DWIDTH 18 0
BBX 16 16 0 0
BITMAP
3FFC
3FFC
FFFF
FFFF
FC3F
FC3F
FFFF
FFFF
FFFF
FFFF
FC00
FC00
FFFC
FFFC
3FFC
3FFC
ENDCHAR
STARTCHAR 0066
ENCODING 102
SWIDTH 437 0
DWIDTH 14 0
BBX 12 22 0 0
BITMAP
0FF0
0FF0
3FF0
3FF0
3F00
3F00
FFF0
FFF0
FFF0
FFF0
3F00
3F00
3F00
3F00
3F00
3F00
3F00
3F00
3F00
3F00
3F00
3F00
ENDCHAR
STARTCHAR 0067
ENCODING 103
SWIDTH 625 0
DWIDTH 20 0
BBX 18 22 0 -6
BITMAP
3FCFC0
3FCFC0
FFFFC0
FFFFC0
FCFFC0
FCFFC0
FC3F00
FC3F00
FC3F00
FC3F00
FC3F00
FC3F00
FFFF00
FFFF00
3FFF00
3FFF00
003F00
003F00
3FFF00
3FFF00
3FFC00
3FFC00
ENDCHAR
STARTCHAR 0068
ENCODING 104
SWIDTH 562 0
DWIDTH 18 0
BBX 16 20 0 0
BITMAP
FC00
FC00
FC00
FC00
FCFC
FCFC
FFFF
FFFF
FF3F
FF3F
FC3F
FC3F
FC3F
FC3F
FC3F
FC3F
FC3F
FC3F
FC3F
FC3F
ENDCHAR
STARTCHAR 0069
ENCODING 105
SWIDTH 375 0
DWIDTH 12 0
BBX 10 24 0 0
BITMAP
3F00
3F00
3F00
3F00
3F00
3F00
0000
0000
FF00
FF00
FF00
FF00
3F00
3F00
3F00
3F00
3F00
3F00
3F00
3F00
3FC0
3FC0
0FC0
0FC0
ENDCHAR
STARTCHAR 006A
ENCODING 106
SWIDTH 500 0
DWIDTH 16 0
BBX 14 30 0 -6
BITMAP
00FC
00FC
00FC
00FC
00FC
00FC
0000
0000
3FFC
3FFC
3FFC
3FFC
00FC
00FC
00FC
00FC
00FC
00FC
00FC
00FC
00FC
00FC
00FC
00FC
FCFC
FCFC
FFFC
FFFC
3FF0
3FF0
ENDCHAR
STARTCHAR 006B
ENCODING 107
SWIDTH 562 0
DWIDTH 18 0
BBX 16 20 0 0
BITMAP
FC00
FC00
FC00
FC00
FC00
FC00
FC3F
FC3F
FC3F
FC3F
FCFC
FCFC
FFF0
FFF0
FFFC
FFFC
FC3F
FC3F
FC3F
FC3F
ENDCHAR
STARTCHAR 006C
ENCODING 108
SWIDTH 375 0
DWIDTH 12 0
BBX 10 20 0 0
BITMAP
FF00
FF00
FF00
FF00
3F00
3F00
3F00
3F00
3F00
3F00
3F00
3F00
3F00
3F00
3F00
3F00
FFC0
FFC0
FFC0
FFC0
ENDCHAR
STARTCHAR 006D
ENCODING 109
SWIDTH 812 0
DWIDTH 26 0
BBX 24 16 0 0
BITMAP
FFCFFC
FFCFFC
FFFFFF
FFFFFF
3F3F3F
3F3F3F
3F3F3F
3F3F3F
3F3F3F
3F3F3F
3F3F3F
3F3F3F
3F3F3F
3F3F3F
3F3F3F
3F3F3F
ENDCHAR
STARTCHAR 006E
ENCODING 110
SWIDTH 625 0
DWIDTH 20 0
BBX 18 16 0 0
BITMAP
FCFF00
FCFF00
FFFFC0
FFFFC0
3FCFC0
3FCFC0
3F0FC0
3F0FC0
3F0FC0
3F0FC0
3F0FC0
3F0FC0
3F0FC0
3F0FC0
3F0FC0
3F0FC0
ENDCHAR
STARTCHAR 006F
ENCODING 111
SWIDTH 562 0
DWIDTH 18 0
BBX 16 16 0 0
BITMAP
3FFC
3FFC
FFFF
FFFF
FC3F
FC3F
FC3F
FC3F
FC3F
FC3F
FC3F
FC3F
FFFF
FFFF
3FFC
3FFC
ENDCHAR
STARTCHAR 0070
ENCODING 112
SWIDTH 562 0
DWIDTH 18 0
BBX 16 22 0 -6
BITMAP
FCFC
FCFC
FFFF
FFFF
FF3F
FF3F
FC3F
FC3F
FC3F
FC3F
FC3F
FC3F
FFFF
FFFF
FFFC
FFFC
FC00
FC00
FC00
FC00
FC00
FC00
ENDCHAR
STARTCHAR 0071
ENCODING 113
SWIDTH 562 0
DWIDTH 18 0
BBX 16 22 0 -6
BITMAP
3FFC
3FFC
FFFF
FFFF
FC3F
FC3F
FC3F
FC3F
FC3F
FC3F
FFFF
FFFF
FFFF
FFFF
3F3F
3F3F
003F
003F
003F
003F
003F
003F
ENDCHAR
STARTCHAR 0072
ENCODING 114
SWIDTH 562 0
DWIDTH 18 0
BBX 16 16 0 0
BITMAP
FCFC
FCFC
FFFF
FFFF
FF3F
FF3F
FC3F
FC3F
FC00
FC00
FC00
FC00
FC00
FC00
FC00
FC00
ENDCHAR
STARTCHAR 0073
ENCODING 115
SWIDTH 562 0
DWIDTH 18 0
BBX 16 16 0 0
BITMAP
3FFF
3FFF
FFFF
FFFF
FC3F
FC3F
3FC0
3FC0
0FFC
0FFC
00FF
00FF
FFFF
FFFF
FFFC
FFFC
ENDCHAR
STARTCHAR 0074
ENCODING 116
SWIDTH 437 0
DWIDTH 14 0
BBX 12 20 0 0
BITMAP
0F00
0F00
3F00
3F00
FFF0
FFF0
FFF0
FFF0
3F00
3F00
3F00
3F00
3F00
3F00
3F00
3F00
3FF0
3FF0
0FF0
0FF0
ENDCHAR
STARTCHAR 0075
ENCODING 117
SWIDTH 562 0
DWIDTH 18 0
BBX 16 16 0 0
BITMAP
FC3F
FC3F
FC3F
FC3F
FC3F
FC3F
FC3F
FC3F
FC3F
FC3F
FCFF
FCFF
FFFF
FFFF
3FCF
3FCF
ENDCHAR
STARTCHAR 0076
ENCODING 118
SWIDTH 625 0
DWIDTH 20 0
BBX 18 16 0 0
BITMAP
FC0FC0
FC0FC0
FC0FC0
FC0FC0
FC0FC0
FC0FC0
FF3FC0
FF3FC0
3F3F00
3F3F00
3F3F00
3F3F00
0FFC00
0FFC00
03F000
03F000
ENDCHAR
STARTCHAR 0077
ENCODING 119
SWIDTH 750 0
DWIDTH 24 0
BBX 22 16 0 0
BITMAP
FC00FC
FC00FC
FC00FC
FC00FC
FCFCFC
FCFCFC
FCFCFC
FCFCFC
FCFCFC
FCFCFC
FFFFFC
FFFFFC
3FCFF0
3FCFF0
0F03C0
0F03C0
ENDCHAR
STARTCHAR 0078
ENCODING 120
SWIDTH 500 0
DWIDTH 16 0
BBX 14 16 0 0
BITMAP
FCFC
FCFC
FCFC
FCFC
3FF0
3FF0
0FC0
0FC0
0FC0
0FC0
3FF0
3FF0
FCFC
FCFC
FCFC
FCFC
ENDCHAR
STARTCHAR 0079
ENCODING 121
SWIDTH 562 0
DWIDTH 18 0
BBX 16 22 0 -6
BITMAP
FC3F
FC3F
FC3F
FC3F
FC3F
FC3F
FC3F
FC3F
FC3F
FC3F
FC3F
FC3F
FFFF
FFFF
3FFF
3FFF
003F
003F
3FFF
3FFF
3FFC
3FFC
ENDCHAR
STARTCHAR 007A
ENCODING 122
SWIDTH 562 0
DWIDTH 18 0
BBX 16 16 0 0
BITMAP
FFFF
FFFF
FFFF
FFFF
FCFC
FCFC
03F0
03F0
0FC0
0FC0
3F3F
3F3F
FFFF
FFFF
FFFF
FFFF
ENDCHAR
STARTCHAR 007B
ENCODING 123
SWIDTH 375 0
DWIDTH 12 0
BBX 8 28 2 -6
BITMAP
0F
0F
3F
3F
3C
3C
3C
3C
3C
3C
3C
3C
F0
F0
F0
F0
3C
3C
3C
3C
3C
3C
3C
3C
3F
3F
0F
0F
ENDCHAR
STARTCHAR 007C
ENCODING 124
SWIDTH 250 0
DWIDTH 8 0
BBX 4 28 2 -6
BITMAP
F0
F0
F0
F0
F0
F0
F0
F0
F0
F0
F0
F0
F0
F0
F0
F0
F0
F0
F0
F0
F0
F0
F0
F0
F0
F0
F0
F0
ENDCHAR
STARTCHAR 007D
ENCODING 125
SWIDTH 375 0
DWIDTH 12 0
BBX 8 28 2 -6
BITMAP
F0
F0
FC
FC
3C
3C
3C
3C
3C
3C
3C
3C
0F
0F
0F
0F
3C
3C
3C
3C
3C
3C
3C
3C
FC
FC
F0
F0
ENDCHAR
STARTCHAR 007E
ENCODING 126
SWIDTH 500 0
DWIDTH 16 0
BBX 12 8 2 6
BITMAP
3CF0
3CF0
FFF0
FFF0
FFF0
FFF0
F3C0
F3C0
ENDCHAR
ENDFONT
